<?xml version="1.0" standalone="no"?>
<!DOCTYPE svg PUBLIC "-//W3C//DTD SVG 20010904//EN"
 "http://www.w3.org/TR/2001/REC-SVG-20010904/DTD/svg10.dtd">
<svg version="1.0" xmlns="http://www.w3.org/2000/svg"
 width="253.000000pt" height="253.000000pt" viewBox="0 0 253.000000 253.000000"
 preserveAspectRatio="xMidYMid meet">
<metadata>
Created by potrace 1.11, written by Peter Selinger 2001-2013
</metadata>
<g transform="translate(0.000000,253.000000) scale(0.100000,-0.100000)"
fill="#000000" stroke="none">
<path d="M1075 2513 c-38 -8 -74 -15 -80 -17 -5 -2 -23 -6 -40 -11 -16 -4 -34
-10 -40 -14 -5 -3 -16 -6 -23 -7 -7 -2 -48 -20 -90 -41 -558 -277 -758 -963
-438 -1498 40 -67 89 -129 156 -196 62 -63 171 -149 187 -149 6 0 13 -4 15 -8
3 -8 131 -71 183 -90 180 -67 430 -77 626 -26 62 15 178 62 237 96 173 97 323
251 420 431 44 80 89 211 106 309 14 78 16 309 3 363 -47 191 -84 283 -164
404 -53 78 -146 182 -218 241 -122 100 -291 178 -470 215 -64 14 -300 13 -370
-2z"/>
<path d="M407 547 c-42 -98 -34 -111 35 -61 26 20 48 34 48 32 0 -1 -9 -26
-20 -55 -12 -33 -16 -54 -10 -58 10 -6 133 75 146 96 10 17 -18 30 -30 15 -6
-7 -27 -25 -47 -40 l-36 -26 24 51 c33 69 20 81 -41 40 -25 -18 -46 -29 -46
-26 0 3 9 23 20 45 24 47 25 56 6 63 -10 4 -24 -18 -49 -76z"/>
<path d="M2002 557 c-37 -28 -50 -43 -42 -51 7 -7 17 -7 32 3 19 12 24 9 59
-31 21 -23 38 -46 39 -50 0 -11 28 -10 34 0 3 5 -15 33 -40 63 -38 46 -42 56
-29 65 15 11 21 45 8 43 -5 0 -32 -19 -61 -42z"/>
<path d="M1823 447 l-43 -22 41 -70 c22 -39 43 -72 45 -74 2 -3 24 5 49 17 31
15 43 26 39 37 -5 13 -10 13 -37 -1 -28 -15 -31 -15 -44 2 -11 15 -9 19 16 32
18 8 28 19 24 28 -4 11 -10 11 -35 -2 -25 -13 -32 -14 -39 -2 -13 20 -11 24
16 36 14 6 25 18 25 27 0 19 -6 19 -57 -8z"/>
<path d="M690 409 c-12 -22 -30 -56 -41 -75 -17 -30 -17 -35 -4 -41 9 -3 18
-4 20 -2 13 14 73 144 69 151 -11 17 -24 7 -44 -33z"/>
<path d="M806 322 c-14 -42 -26 -80 -26 -84 0 -3 21 -13 47 -22 36 -13 48 -13
54 -4 9 14 -7 28 -33 28 -28 0 -30 16 -8 77 24 68 24 69 6 76 -11 4 -21 -14
-40 -71z"/>
<path d="M1635 373 c-21 -8 -41 -16 -43 -18 -3 -2 8 -41 24 -85 22 -64 31 -79
43 -74 9 3 31 10 49 16 17 5 32 15 32 23 0 18 -9 19 -44 5 -21 -8 -27 -6 -36
9 -8 16 -5 21 20 31 45 19 38 46 -8 29 -18 -7 -28 -6 -34 3 -13 22 -9 28 22
35 17 3 30 11 30 19 0 20 -12 22 -55 7z"/>
<path d="M1017 327 c-5 -14 -14 -77 -20 -142 -3 -28 79 -34 112 -8 34 28 41
110 13 136 -28 26 -97 34 -105 14z m82 -34 c10 -8 2 -74 -9 -88 -7 -8 -23 -15
-37 -15 -23 0 -24 2 -18 48 10 70 12 74 37 66 13 -3 25 -8 27 -11z"/>
<path d="M1427 327 c-30 -7 -36 -13 -32 -27 3 -10 7 -31 9 -46 10 -74 19 -104
32 -104 10 0 14 13 14 40 0 37 2 40 28 40 20 0 29 5 29 16 0 12 -8 15 -34 12
-18 -2 -33 -1 -33 3 0 4 -3 14 -6 22 -4 12 3 16 28 19 20 2 33 8 33 17 0 18
-20 20 -68 8z"/>
</g>
</svg>
